<?xml version="1.0" encoding="utf-8"?>
<!-- Generator: Adobe Illustrator 24.3.0, SVG Export Plug-In . SVG Version: 6.00 Build 0)  -->
<svg version="1.1" xmlns="http://www.w3.org/2000/svg" xmlns:xlink="http://www.w3.org/1999/xlink" x="0px" y="0px"
	 viewBox="0 0 361.9 374.6" style="enable-background:new 0 0 361.9 374.6;" xml:space="preserve">
<style type="text/css">
	.st0{fill:#37B74A;}
</style>
<g id="Layer_1">
	<g id="Layer_3">
	</g>
	<g id="Layer_4">
		<g>
			<g>
				<g>
					<path class="st0" d="M5.7,373.7c-0.8,0-1.8-0.2-3-0.5c-1.2-0.3-2-1.5-2.3-3.3c-0.3-3.4-0.4-12.1-0.4-26c0-12.5,0.1-22.2,0.4-29
						c0.3-2.5,2.3-3.7,6.1-3.7c1.1,0,2.5,0.3,4.1,0.8s2.4,1.6,2.5,3.3c-0.1,3.7-0.2,7.5-0.2,11.6l0.1,13.1c0.1,0.7,1.5,1,4.4,1
						c1.6,0,2.9-0.1,4.1-0.5c1-0.2,1.5-0.6,1.6-1.2c0.1-1.6,0.2-4.4,0.3-8.6c0.1-6.6,0.2-11.4,0.5-14.4c0.3-2.1,1.4-3.4,3.4-4
						c0.9-0.3,1.8-0.4,2.6-0.4c1,0,2.3,0.3,3.7,0.9c1.4,0.6,2.2,1.8,2.4,3.7c0,3.4,0,8.8-0.2,16.3c-0.1,7.5-0.2,14.8-0.3,22
						S35,366.6,35,369c-0.1,1.8-1,3-2.6,3.7c-1,0.4-2,0.6-3,0.6c-0.6,0-1.5-0.1-2.7-0.4s-1.9-1.1-2.3-2.4c-0.4-2.9-0.6-6.7-0.7-11.4
						c-0.1-2.7-0.1-5.1-0.3-7.2s-0.4-3.3-0.8-3.7c-0.6-0.4-2.1-0.6-4.3-0.6c-3.6,0-5.5,0.5-5.9,1.4c-0.3,1.8-0.5,4.6-0.5,8.5v1
						c0,4.2-0.1,8.1-0.5,11.6c-0.3,1.4-1.3,2.5-3,3.1C7.7,373.5,6.7,373.7,5.7,373.7z"/>
					<path class="st0" d="M55,373.3c-3.7,0-6.7-1-9.1-3.1c-2.4-2-4.2-4.7-5.3-8c-1.1-3-1.6-6.2-1.6-9.6c0-0.2,0-1.4,0.1-3.3
						c0-2,0.7-4.6,2-7.9c1.3-3.3,3.2-6,5.7-8.1c2.5-2.1,5.6-3.1,9.3-3.1c3.2,0,5.8,0.8,8,2.3c2.2,1.6,3.9,3.6,5.2,6.1
						c1.7,3.5,2.5,7.3,2.5,11.6c0,2-0.2,4.2-0.7,6.7s-1.4,5-2.8,7.6s-3.2,4.6-5.5,6.2C60.7,372.4,58,373.2,55,373.3z M56.7,364.7
						c1.8,0,3.3-0.9,4.4-2.6c1.5-2.5,2.3-6,2.3-10.4c0-1.5-0.2-3.4-0.5-5.5s-1-4.2-2.1-6.1c-1.1-1.9-2.5-2.9-4.2-2.9
						c-1.6,0-2.9,0.9-4,2.8c-1.8,3-2.7,7-2.7,11.8c0,1,0.1,2.4,0.2,4.3s0.8,3.7,1.8,5.6c1.1,1.9,2.5,2.9,4.5,3.1L56.7,364.7
						L56.7,364.7z"/>
					<path class="st0" d="M132.2,373.7c-0.9,0-2.1-0.2-3.5-0.6c-1.4-0.4-2.3-1.6-2.5-3.4c-0.1-1.9-0.2-4.3-0.2-7.2v-2
						c0-6.2-0.2-11.1-0.8-14.8c-0.9-5.9-2.7-8.9-5.5-8.9c-1.6,0-2.8,0.5-3.9,1.6c-1,1.1-1.8,2.4-2.3,4.1c-0.5,1.7-0.8,3.5-0.8,5.4
						c0,6.9-0.2,13.7-0.5,20.3c-0.3,2.2-1.3,3.6-3.1,4.4c-0.9,0.4-1.9,0.6-2.8,0.6c-0.9,0-1.9-0.3-3.3-0.8c-1.3-0.5-2-1.9-2.2-4
						v-7.7c0-7.1-0.3-12.6-0.8-16.5c-0.9-5.8-2.9-8.7-6-8.7c-1.9,0-3.5,0.8-4.6,2.5c-1.1,1.7-1.7,4.1-1.7,7.2c0,2.1,0,4.8,0.1,8
						l0.1,11.3c0,2.2,0,4-0.1,5.3c-0.2,1.6-1.3,2.7-3.2,3.3c-0.9,0.3-1.7,0.4-2.6,0.4c-1,0-2.2-0.2-3.6-0.8s-2.3-1.9-2.6-4
						c-0.3-4-0.6-9.6-0.8-16.6c-0.1-1.8-0.1-3.5-0.1-5.1c0-5,0.2-9.5,0.7-13.5c0.4-2.4,2.2-3.6,5.4-3.6c3,0,5.2,1,6.6,3
						c2.4-2.4,5.8-3.6,10.1-3.6c2.6,0,4.8,0.5,6.6,1.4c1.8,0.9,3.1,2,4.2,3.2c1,1.2,1.7,2.3,2.2,3.3c0.7-1.2,1.7-2.5,2.9-3.7
						c1.2-1.2,2.7-2.2,4.6-3c1.8-0.8,4-1.2,6.5-1.2c3.5,0,6.3,1.1,8.3,3.2c2,2.1,3.4,5,4.3,8.7s1.4,7.9,1.5,12.6
						c0.1,1.7,0.1,3.5,0.1,5.3c0,3.2-0.1,6.5-0.2,10c-0.2,2-1.3,3.4-3.3,4C134.3,373.5,133.3,373.7,132.2,373.7z"/>
					<path class="st0" d="M156.6,373.5c-2.9,0-5.4-0.8-7.5-2.4c-2-1.6-3.6-3.6-4.7-6.2c-1.5-3.3-2.2-7.2-2.2-11.5
						c0-2.1,0.2-4.4,0.7-6.9s1.4-5.1,2.7-7.7s3.1-4.6,5.2-6.2c2.1-1.6,4.6-2.4,7.4-2.4c2.4,0,4.4,0.7,6.1,2.2
						c1.6,1.5,2.9,3.3,3.8,5.5c0.9,2.4,1.3,5,1.3,7.7c0,2.3-0.4,4.6-1,6.8c-0.7,2.2-1.8,4-3.4,5.4s-3.5,2.2-5.8,2.2
						c-1.5,0-2.7-0.2-3.6-0.7s-1.5-1-1.9-1.5s-0.7-1-0.8-1.4c0.2,4.7,1.4,7.6,3.6,8.8c0.6,0.3,1.2,0.5,1.9,0.5c1.7,0,3.5-1,5.6-3.1
						c0.8-0.8,1.5-1.1,2.1-1.1c0.2,0,0.5,0.1,1,0.2c0.5,0.1,0.9,0.6,1.3,1.5c0.2,0.5,0.3,0.9,0.3,1.4c0,1.5-0.8,3.1-2.5,4.8
						C163.6,372.1,160.4,373.5,156.6,373.5z M155.9,351.4c1.4,0,2.6-1.1,3.6-3.4c1-2.2,1.5-4.7,1.5-7.2c0-0.9-0.1-1.8-0.3-2.8
						s-0.8-1.5-1.7-1.5s-1.7,0.5-2.4,1.6c-0.7,1.1-1.3,2.4-1.8,3.9c-0.5,1.5-0.9,3.1-1.1,4.6c-0.2,1.4-0.4,2.5-0.4,3.4v0.2
						C154.2,351,155.1,351.4,155.9,351.4z"/>
					<path class="st0" d="M239.1,373.2c-2.8,0-4.4-1.2-4.7-3.8c0-0.8,0-2.5,0-4.8c0-15.5,0.2-25,0.6-28.7c-0.6,1.4-1.8,4.8-3.7,10.1
						c-2.5,7.3-4.1,11.7-4.9,13.3c-0.9,1.7-2.6,2.6-4.8,2.6c-2.4,0-3.9-1-4.6-3l-2.2-6.9c-2.4-7.9-4.1-13.4-4.9-16.3
						c0,1.1,0,2.5,0,4.1c0,2.2,0,4.8,0.1,7.8c0.1,4.5,0.1,8.8,0.1,12.9c0,4.2-0.2,7.2-0.5,9.1c-0.4,1.6-1.3,2.6-2.4,2.9
						c-1.2,0.4-2.1,0.5-2.9,0.5c-0.9,0-1.7-0.1-2.6-0.5c-1.6-0.6-2.6-1.8-2.9-3.5c-0.6-4.6-0.9-9.1-0.9-13.6s0-7.1,0-8
						c0-7,0.1-13.5,0.3-19.7c0.2-6.9,0.5-11.1,0.8-12.6c0.8-2.4,2.7-3.6,5.9-3.6c2.6,0,4.7,0.9,6.1,2.6c2.1,2.9,4.8,9.1,8.1,18.6
						c1.3,3.9,2.3,7.1,2.9,9.7c1-2.6,2.3-5.9,3.9-9.8c1.6-3.9,3.2-7.6,4.8-11.1c1.6-3.5,2.8-5.9,3.6-7.2c1.1-1.5,2.3-2.3,3.5-2.5
						s2.1-0.2,2.6-0.2c1.4,0,2.6,0.3,3.8,0.9c1.6,0.8,2.4,2,2.6,3.6c0,3.5-0.2,12.5-0.5,27c-0.4,15.7-0.8,24.5-1.1,26.4
						c-0.4,1.4-1.2,2.3-2.5,2.8C241.2,373,240.1,373.2,239.1,373.2z"/>
					<path class="st0" d="M264.3,373.5c-3,0-5.4-0.8-7.5-2.4c-2-1.6-3.6-3.6-4.7-6.2c-1.5-3.3-2.2-7.2-2.2-11.5
						c0-2.1,0.2-4.4,0.7-6.9s1.4-5.1,2.7-7.7s3.1-4.6,5.2-6.2s4.6-2.4,7.4-2.4c2.4,0,4.5,0.7,6.1,2.2c1.6,1.5,2.9,3.3,3.8,5.5
						c0.9,2.4,1.3,5,1.3,7.7c0,2.3-0.4,4.6-1,6.8c-0.7,2.2-1.8,4-3.4,5.4c-1.5,1.5-3.5,2.2-5.8,2.2c-1.5,0-2.7-0.2-3.5-0.7
						s-1.5-1-1.9-1.5s-0.7-1-0.8-1.4c0.2,4.7,1.4,7.6,3.5,8.8c0.6,0.3,1.2,0.5,1.9,0.5c1.7,0,3.5-1,5.5-3.1c0.8-0.8,1.5-1.1,2.1-1.1
						c0.2,0,0.5,0.1,1,0.2c0.5,0.1,1,0.6,1.3,1.5c0.2,0.5,0.3,0.9,0.3,1.4c0,1.5-0.8,3.1-2.5,4.8
						C271.3,372.1,268.1,373.5,264.3,373.5z M263.5,351.4c1.4,0,2.6-1.1,3.6-3.4c1-2.2,1.5-4.7,1.5-7.2c0-0.9-0.1-1.8-0.3-2.8
						s-0.8-1.5-1.7-1.5s-1.7,0.5-2.4,1.6c-0.7,1.1-1.3,2.4-1.8,3.9s-0.9,3.1-1.1,4.6c-0.2,1.4-0.4,2.5-0.4,3.4v0.2
						C261.9,351,262.8,351.4,263.5,351.4z"/>
					<path class="st0" d="M309.1,374.6c-1.9,0-3.5-0.7-4.8-2.2c-0.7-1-1-2.6-1.1-5c-0.5,1.1-1,1.8-1.2,2.2c-1.7,2.5-4.4,3.8-8.1,3.8
						h-0.2c-3.3-0.2-6-1.4-8.1-3.5s-3.5-4.7-4.4-7.6s-1.2-5.9-1.2-8.8c0-4.2,0.8-8.3,2.3-12.1c1.2-3.2,3-5.8,5.3-7.9s5-3.1,8.3-3.1
						c1.8,0,3.2,0.3,4.4,1c1.2,0.6,2.1,1.4,2.8,2.3c0.7,0.9,1.1,1.7,1.4,2.5c0-1.1,0.2-2.2,0.5-3.4c0.7-1.9,2.6-2.9,5.7-2.9
						c1,0,2,0.2,3,0.5c1.7,0.6,2.6,1.8,2.8,3.5c0,1.5,0,3.2,0,5.1c0,6.8-0.1,13.5-0.2,20.3c-0.1,4.5-0.2,7.9-0.4,10.1
						c-0.1,1.7-0.9,2.9-2.2,3.8C312.1,374.2,310.6,374.6,309.1,374.6z M296,368.2c1.4,0,2.6-0.8,3.7-2.3c1.1-1.5,2.1-3.5,2.9-5.9
						s1.3-4.6,1.6-6.7c0.3-2.1,0.4-3.8,0.4-5.2c0-4-0.7-7.1-2-9.3c-1-1.5-2.4-2.3-4.2-2.3c-1.8,0-3.2,1.1-4.4,3.2s-2,4.6-2.4,7.5
						s-0.7,5.5-0.7,7.9c0,4,0.5,7.3,1.5,9.9C293.3,367.1,294.5,368.2,296,368.2z"/>
					<path class="st0" d="M325.9,374.3c-3.5,0-5.3-1.8-5.5-5.4c0-1.1-0.1-3.2-0.2-6.3c-0.4-9.1-0.6-18.1-0.6-27
						c0-7,0.2-14.1,0.7-21.5c0.2-1.6,1.3-2.7,3.3-3.3c0.8-0.2,1.7-0.4,2.5-0.4c1.1,0,2.3,0.3,3.8,0.8s2.2,1.9,2.3,4.1
						c-0.8,22.9-1.2,39.9-1.2,50.9v3.5c-0.1,2-1,3.4-2.7,4C327.5,374.1,326.7,374.3,325.9,374.3z"/>
					<path class="st0" d="M351.8,373.6c-5,0-9.3-1.3-12.7-4c-2.6-2-3.9-3.9-4-5.5c0-1.4,0.5-2.4,1.5-3.1c0.3-0.2,0.6-0.4,1-0.4
						c0.4,0,0.8,0.1,1.2,0.4c2.7,2,5.3,3.3,7.9,3.9c0.8,0.2,1.4,0.2,2,0.2c1.4,0,2.3-0.5,2.8-1.5c0.1-0.4,0.2-0.7,0.2-1
						c0-0.7-0.5-1.4-1.3-2.1c-0.8-0.7-2-1.6-3.7-2.6c-2.3-1.2-4.6-2.9-6.8-4.9s-3.7-4.8-4.5-8.2c-0.1-0.8-0.2-1.7-0.2-2.7
						c0-1.6,0.3-3.2,1-5c0.6-1.8,1.9-3.3,3.8-4.8s4.2-2.1,7-2.1c4.5,0,8.2,1.7,11.3,5c2.4,2.6,3.6,5,3.7,7.1c0,1-0.3,2-0.9,3.2
						c-0.6,1.2-1.6,2.1-3,2.8c-0.6,0.3-1.2,0.4-1.6,0.4c-0.7,0-1.2-0.2-1.7-0.7c-3-3.7-5.6-5.5-7.7-5.5c-0.6,0-1.1,0.2-1.4,0.6
						c-0.3,0.4-0.4,0.8-0.4,1.2c0.1,1.3,2,3.2,5.9,5.5c2.1,1.2,4.1,2.6,6,4.2c3.2,2.6,4.8,5.8,4.8,9.6c0,0.9-0.2,2.1-0.6,3.5
						c-0.4,1.4-1.4,2.8-3.1,4.2S354.4,373.6,351.8,373.6z"/>
				</g>
			</g>
		</g>
		<g>
			<path d="M60.6,301.6c-0.9,0-2-0.2-3.5-0.5s-2.3-1.6-2.7-3.6c-0.3-3.7-0.5-13.2-0.5-28.3c0-13.7,0.2-24.2,0.4-31.6
				c0.4-2.7,2.7-4.1,7.1-4.1c1.3,0,2.9,0.3,4.7,0.9s2.8,1.8,2.9,3.6c-0.2,4-0.2,8.2-0.2,12.6l0.1,14.3c0.1,0.7,1.8,1.1,5.1,1.1
				c1.8,0,3.4-0.2,4.7-0.5c1.2-0.3,1.8-0.7,1.9-1.3c0.2-1.7,0.3-4.8,0.3-9.4c0.1-7.2,0.3-12.4,0.5-15.7c0.4-2.3,1.7-3.8,3.9-4.4
				c1-0.3,2.1-0.5,3.1-0.5c1.2,0,2.6,0.3,4.3,0.9s2.6,2,2.8,4.1c0,3.7-0.1,9.6-0.2,17.8c-0.1,8.2-0.2,16.2-0.4,24
				c-0.1,7.8-0.2,13-0.2,15.7c-0.2,2-1.2,3.3-3.1,4.1c-1.2,0.4-2.3,0.6-3.6,0.6c-0.8,0-1.8-0.1-3.2-0.4c-1.4-0.3-2.3-1.2-2.7-2.6
				c-0.5-3.2-0.8-7.3-0.8-12.4c-0.1-3-0.2-5.6-0.3-7.9c-0.2-2.3-0.4-3.6-0.9-4c-0.8-0.5-2.4-0.7-5-0.7c-4.2,0-6.4,0.5-6.8,1.5
				c-0.4,2-0.5,5.1-0.5,9.2v1.1c0,4.6-0.2,8.8-0.5,12.7c-0.3,1.5-1.5,2.7-3.5,3.4C62.9,301.4,61.8,301.6,60.6,301.6z"/>
			<path d="M116.3,301.4c-3.4,0-6.3-0.9-8.7-2.6c-2.4-1.7-4.2-4-5.5-6.8c-1.7-3.6-2.6-7.8-2.6-12.6c0-2.2,0.3-4.8,0.8-7.6
				c0.5-2.8,1.6-5.6,3.2-8.4c1.6-2.8,3.6-5.1,6-6.8c2.4-1.7,5.3-2.6,8.6-2.6c2.8,0,5.2,0.8,7.1,2.4c1.9,1.6,3.4,3.6,4.4,6.1
				c1,2.6,1.6,5.5,1.6,8.4c0,2.5-0.4,5-1.2,7.4s-2.1,4.3-3.9,5.9c-1.8,1.6-4.1,2.4-6.8,2.4c-1.8,0-3.1-0.2-4.1-0.8s-1.7-1-2.2-1.6
				c-0.5-0.6-0.8-1.1-0.9-1.5c0.3,5.1,1.6,8.3,4.1,9.6c0.7,0.4,1.5,0.5,2.2,0.5c1.9,0,4.1-1.1,6.5-3.4c0.9-0.8,1.7-1.2,2.5-1.2
				c0.2,0,0.6,0.1,1.2,0.2c0.6,0.1,1.1,0.7,1.6,1.7c0.2,0.5,0.3,1,0.3,1.5c0,1.6-1,3.4-2.9,5.3C124.4,299.9,120.7,301.4,116.3,301.4
				z M115.3,277.3c1.7,0,3.1-1.2,4.3-3.7c1.2-2.5,1.8-5.1,1.8-7.9c0-0.9-0.1-2-0.4-3.1c-0.3-1.1-0.9-1.7-1.9-1.7c-1,0-2,0.6-2.8,1.8
				s-1.5,2.6-2.1,4.3c-0.6,1.7-1.1,3.4-1.3,5c-0.3,1.5-0.4,2.7-0.4,3.7v0.3C113.4,276.9,114.4,277.3,115.3,277.3z"/>
			<path d="M168.4,302.6c-2.2,0-4.1-0.8-5.6-2.4c-0.8-1-1.2-2.9-1.3-5.5c-0.6,1.2-1.1,2-1.5,2.5c-1.9,2.8-5.1,4.1-9.4,4.1h-0.3
				c-3.9-0.2-7-1.5-9.4-3.8c-2.4-2.3-4.1-5.1-5.1-8.3s-1.5-6.5-1.5-9.6c0-4.6,0.9-9,2.7-13.2c1.5-3.5,3.5-6.4,6.2-8.6
				c2.7-2.2,5.9-3.4,9.6-3.4c2,0,3.8,0.4,5.1,1.1s2.4,1.5,3.2,2.5c0.8,1,1.3,1.9,1.6,2.8c0-1.1,0.2-2.4,0.5-3.7
				c0.8-2.1,3-3.1,6.6-3.1c1.2,0,2.3,0.2,3.5,0.6c2,0.7,3.1,1.9,3.3,3.8c0,1.6,0.1,3.5,0.1,5.6c0,7.4-0.1,14.8-0.3,22.1
				c-0.1,4.9-0.3,8.6-0.4,11.1c-0.2,1.8-1,3.2-2.6,4.1C171.9,302.1,170.3,302.6,168.4,302.6z M153.3,295.6c1.6,0,3-0.8,4.4-2.5
				c1.3-1.7,2.4-3.8,3.4-6.5c0.9-2.6,1.5-5.1,1.9-7.3c0.3-2.3,0.5-4.1,0.5-5.7c0-4.4-0.8-7.8-2.3-10.2c-1.1-1.7-2.8-2.5-4.9-2.5
				c-2.1,0-3.8,1.2-5.1,3.5s-2.3,5.1-2.8,8.1s-0.8,6-0.8,8.7c0,4.4,0.6,8,1.8,10.8C150,294.5,151.4,295.6,153.3,295.6z"/>
			<path d="M188.1,302.3c-4.1,0-6.2-2-6.4-5.9c0-1.2-0.1-3.5-0.2-6.9c-0.5-9.9-0.7-19.8-0.7-29.5c0-7.6,0.3-15.4,0.8-23.5
				c0.3-1.8,1.6-2.9,3.8-3.6c1-0.3,1.9-0.4,2.9-0.4c1.2,0,2.7,0.3,4.4,0.9c1.7,0.6,2.6,2.1,2.7,4.5c-0.9,25-1.4,43.5-1.4,55.6v3.8
				c-0.1,2.2-1.1,3.7-3.1,4.4C189.9,302.1,189,302.3,188.1,302.3z"/>
			<path d="M211.9,301.8c-1.5,0-3.2-0.5-5.1-1.5s-3.1-2.5-3.8-4.6c-0.3-1.5-0.6-4.6-0.8-9.5c-0.3-6.7-0.4-14.2-0.4-22.4
				c0-3.9,0-7.6,0.1-11.2h-1c-0.9,0-1.7,0-2.4-0.1c-1.5-0.3-2.2-1.4-2.2-3.3c0-0.4,0.1-1,0.3-1.7s0.8-1.2,1.7-1.5
				c1.4-0.4,2.6-0.7,3.8-0.8c0.1-1.9,0.2-3.4,0.3-4.5c0.2-1.3,0.9-2.3,2.3-3s2.8-1,4.5-1c1.7,0,3.1,0.4,4.4,1.2
				c1.3,0.8,1.9,2,1.9,3.6v2.5c1.7-0.1,2.8-0.1,3.1-0.1c1.9,0.1,2.9,1.3,3.2,3.6l0.1,0.7c0,1.9-0.9,3-2.6,3.1
				c-0.6,0.1-1.8,0.2-3.7,0.3l0.5,46.2C215.9,300.5,214.5,301.8,211.9,301.8z"/>
			<path d="M231.4,301.8c-1.1,0-2.5-0.3-4.1-0.9s-2.6-2.2-2.8-4.8c-0.2-4.6-0.4-11.1-0.5-19.2c-0.2-12.1-0.3-21.1-0.3-27.2
				c0-5.6,0.1-9.7,0.2-12.2c0.4-2.6,2.4-4,6.2-4c1.3,0,2.9,0.3,4.6,1s2.6,1.9,2.8,3.8v19.6c0.3-0.5,1-1.1,2.1-2
				c1.1-0.9,2.4-1.7,4.1-2.4c1.7-0.7,3.7-1.1,5.9-1.1c4.4,0,7.7,1.2,10,3.5c2.3,2.3,3.9,5.5,4.7,9.6c0.8,3.8,1.2,8.1,1.2,13
				c0,5.6-0.2,11.8-0.7,18.5c-0.3,2.2-1.5,3.6-3.8,4.3c-1,0.3-2.1,0.5-3.1,0.5c-4.4,0-6.8-1.8-7.2-5.4c-0.1-3.3-0.2-6.7-0.2-10
				l0.1-4.9l0.1-6c0-1.9-0.1-4.1-0.1-6.7c-0.1-2.6-0.5-4.9-1.2-7c-0.7-2.1-2-3.1-3.8-3.1c-3.4,0-5.6,3-6.5,8.9
				c-0.6,3.8-0.9,9.6-0.9,17.4v2.8c0,3.2,0,6.3-0.1,9.4c-0.2,2.1-1.4,3.5-3.5,4.1C233.4,301.6,232.4,301.8,231.4,301.8z"/>
			<path d="M287.2,321.8c-2.4,0-4.7-0.5-7-1.5s-4.1-2.4-5.6-4.1c-0.7-0.9-1-1.6-1-2.3c0-0.1,0-0.5,0.1-1s0.5-0.9,1.2-1.1
				c0.2-0.1,0.5-0.1,0.7-0.1c0.5,0,1.1,0.2,1.8,0.7c1.7,1.2,3.4,1.8,5,1.8c0.9,0,2.2-0.3,3.9-1s3.3-2.7,4.9-6.1s2.4-7.6,2.4-12.8
				c-1,2.1-2.4,3.8-4.3,5.2c-1.8,1.4-4,2.1-6.6,2.1c-4.1,0-7.3-1.8-9.4-5.4c-2.7-4.4-4.1-11.2-4.1-20.3c0-5.3,0.5-11.3,1.4-18
				c0.5-2.5,2.3-3.7,5.4-3.7c1.3,0,2.5,0.3,3.8,0.9c1.8,0.9,2.6,2.2,2.6,4v0.1c-0.1,0.8-0.2,2.4-0.4,4.8c-0.2,3.2-0.3,6.7-0.3,10.7
				c0,12.1,1.5,18.2,4.4,18.2c1.7,0,3.1-1.5,4.2-4.6c2.2-5.9,3.3-15,3.3-27.4v-2c0.1-2.1,1.2-3.5,3.2-4.2c1-0.4,2-0.6,3.1-0.6
				c1,0,2.2,0.2,3.7,0.7c1.5,0.5,2.4,1.8,2.8,3.8c0.7,5.5,1,11.8,1,19c0,5.6-0.4,11.6-1.2,18s-2.5,12.1-5.1,17.2s-6.4,8-11.5,8.9
				C288.8,321.7,288,321.8,287.2,321.8z"/>
		</g>
	</g>
</g>
<g id="Layer_3_1_">
</g>
<g id="Layer_2">
	<g>
		<g>
			<path class="st0" d="M234.1,158.1l-46.5-26.8c-3.1-1.8-6.9-1.8-9.9,0l-49.3,28.2c-3.1,1.8-5,5.1-5,8.7v41
				c0,6.8,5.5,12.4,12.4,12.4h38.8v-18.9h14.9v18.9h37.4c6.8,0,12.4-5.5,12.4-12.4v-42.3C239.1,163.2,237.2,159.9,234.1,158.1z"/>
		</g>
		<path d="M300.6,67.2c-11.8-24-37.6-39.7-66-40.2c-7.9-8.3-26.5-24.1-53.9-24.1c-0.4,0-0.7,0-1.1,0c-26.2,0.4-43.8,14.4-52.7,23.9
			c-0.1,0-0.3,0-0.4,0c-15.3,0-30,4.8-42.5,13.8C71.5,49.7,62.4,62.3,57.7,77c-5.1,16.1-4.3,33.6,2.2,49.3
			c5.5,13.1,14.5,24.2,26.1,32.1v40.8c0,12.2,10,22.2,22.2,22.2h4.8v-78.9l-7.3-3.8c-19.6-10.2-29-32.7-22.4-53.6
			c5.8-18.5,23.6-31.3,43.1-31.3c1.6,0,3.2,0.1,4.9,0.3l7.7,0.8l4.6-6.2c1.4-1.9,14.2-18.4,36.3-18.7l0.6,0
			c22.5,0,35.6,16.8,37,18.7l4.4,6l7.4-0.5c1.2-0.1,2.5-0.1,3.7-0.1c18.8,0,35.7,9.8,43.2,25.1c10.3,21,1.4,48.1-20.4,61.7l-6.3,4
			v76.7h4.8c12.2,0,22.2-10,22.2-22.2v-39.9C305.4,137.2,315.7,98,300.6,67.2z"/>
	</g>
</g>
</svg>
