<?xml version="1.0" encoding="utf-8"?>
<!-- Generator: Adobe Illustrator 24.3.0, SVG Export Plug-In . SVG Version: 6.00 Build 0)  -->
<svg version="1.1" id="Layer_1" xmlns="http://www.w3.org/2000/svg" xmlns:xlink="http://www.w3.org/1999/xlink" x="0px" y="0px"
	 viewBox="0 0 566 186.6" style="enable-background:new 0 0 566 186.6;" xml:space="preserve">
<style type="text/css">
	.st0{fill:#37B74A;}
</style>
<g id="Layer_1_1_">
	<g id="Layer_3">
	</g>
	<g id="Layer_4">
		<g>
			<g>
				<g>
					<path class="st0" d="M235.9,186.2c-0.7,0-1.7-0.2-2.8-0.5c-1.1-0.3-1.9-1.4-2.1-3.1c-0.3-3.2-0.4-11.2-0.4-24.1
						c0-11.6,0.1-20.6,0.4-26.9c0.3-2.3,2.1-3.4,5.7-3.4c1,0,2.3,0.3,3.8,0.7c1.5,0.5,2.2,1.5,2.3,3.1c-0.1,3.4-0.2,6.9-0.2,10.7
						l0.1,12.1c0.1,0.6,1.4,0.9,4.1,0.9c1.5,0,2.7-0.1,3.8-0.5c0.9-0.2,1.4-0.6,1.5-1.1c0.1-1.5,0.2-4.1,0.3-8
						c0.1-6.1,0.2-10.6,0.5-13.3c0.3-1.9,1.3-3.2,3.2-3.7c0.8-0.3,1.7-0.4,2.4-0.4c0.9,0,2.1,0.3,3.4,0.8c1.3,0.6,2,1.7,2.2,3.4
						c0,3.2,0,8.2-0.2,15.1c-0.1,6.9-0.2,13.7-0.3,20.4c-0.1,6.7-0.5,10.9-0.5,13.2c-0.1,1.7-0.9,2.8-2.4,3.4
						c-0.9,0.4-1.9,0.6-2.8,0.6c-0.6,0-1.4-0.1-2.5-0.4c-1.1-0.3-1.8-1-2.1-2.2c-0.4-2.7-0.6-6.2-0.6-10.6c-0.1-2.5-0.1-4.7-0.3-6.7
						c-0.2-1.9-0.4-3.1-0.7-3.4c-0.6-0.4-1.9-0.6-4-0.6c-3.3,0-5.1,0.5-5.5,1.3c-0.3,1.7-0.5,4.3-0.5,7.9v0.9
						c0,3.9-0.1,7.5-0.5,10.7c-0.3,1.3-1.2,2.3-2.8,2.9C237.7,186,236.8,186.2,235.9,186.2z"/>
					<path class="st0" d="M281.6,185.8c-3.4,0-6.2-0.9-8.4-2.9c-2.2-1.9-3.9-4.4-4.9-7.4c-1-2.8-1.5-5.7-1.5-8.9
						c0-0.2,0-1.3,0.1-3.1c0-1.9,0.6-4.3,1.9-7.3c1.2-3.1,3-5.6,5.3-7.5s5.2-2.9,8.6-2.9c3,0,5.4,0.7,7.4,2.1c2,1.5,3.6,3.3,4.8,5.7
						c1.6,3.2,2.3,6.8,2.3,10.7c0,1.9-0.2,3.9-0.6,6.2c-0.5,2.3-1.3,4.6-2.6,7s-3,4.3-5.1,5.7C286.9,185,284.3,185.7,281.6,185.8z
						 M283.1,177.8c1.7,0,3.1-0.8,4.1-2.4c1.4-2.3,2.1-5.6,2.1-9.6c0-1.4-0.2-3.2-0.5-5.1s-0.9-3.9-1.9-5.7c-1-1.8-2.3-2.7-3.9-2.7
						c-1.5,0-2.7,0.8-3.7,2.6c-1.7,2.8-2.5,6.5-2.5,10.9c0,0.9,0.1,2.2,0.2,4s0.7,3.4,1.7,5.2c1,1.8,2.3,2.7,4.2,2.9L283.1,177.8
						L283.1,177.8z"/>
					<path class="st0" d="M353.1,186.2c-0.8,0-1.9-0.2-3.2-0.6c-1.3-0.4-2.1-1.5-2.3-3.2c-0.1-1.8-0.2-4-0.2-6.7v-1.9
						c0-5.7-0.2-10.3-0.7-13.7c-0.8-5.5-2.5-8.2-5.1-8.2c-1.5,0-2.6,0.5-3.6,1.5c-0.9,1-1.7,2.2-2.1,3.8s-0.7,3.2-0.7,5
						c0,6.4-0.2,12.7-0.5,18.8c-0.3,2-1.2,3.3-2.9,4.1c-0.8,0.4-1.8,0.6-2.6,0.6c-0.8,0-1.8-0.3-3.1-0.7c-1.2-0.5-1.9-1.8-2-3.7
						v-7.1c0-6.6-0.3-11.7-0.7-15.3c-0.8-5.4-2.7-8.1-5.6-8.1c-1.8,0-3.2,0.7-4.3,2.3s-1.6,3.8-1.6,6.7c0,1.9,0,4.4,0.1,7.4
						l0.1,10.5c0,2,0,3.7-0.1,4.9c-0.2,1.5-1.2,2.5-3,3.1c-0.8,0.3-1.6,0.4-2.4,0.4c-0.9,0-2-0.2-3.3-0.7s-2.1-1.8-2.4-3.7
						c-0.3-3.7-0.6-8.9-0.7-15.4c-0.1-1.7-0.1-3.2-0.1-4.7c0-4.6,0.2-8.8,0.6-12.5c0.4-2.2,2-3.3,5-3.3c2.8,0,4.8,0.9,6.1,2.8
						c2.2-2.2,5.4-3.3,9.4-3.3c2.4,0,4.4,0.5,6.1,1.3c1.7,0.8,2.9,1.9,3.9,3c0.9,1.1,1.6,2.1,2,3.1c0.6-1.1,1.6-2.3,2.7-3.4
						s2.5-2,4.3-2.8c1.7-0.7,3.7-1.1,6-1.1c3.2,0,5.8,1,7.7,3c1.9,1.9,3.2,4.6,4,8.1c0.8,3.4,1.3,7.3,1.4,11.7
						c0.1,1.6,0.1,3.2,0.1,4.9c0,3-0.1,6-0.2,9.3c-0.2,1.9-1.2,3.2-3.1,3.7C355,186,354.1,186.2,353.1,186.2z"/>
					<path class="st0" d="M375.7,186c-2.7,0-5-0.7-6.9-2.2c-1.9-1.5-3.3-3.3-4.4-5.7c-1.4-3.1-2-6.7-2-10.7c0-1.9,0.2-4.1,0.6-6.4
						s1.3-4.7,2.5-7.1c1.2-2.4,2.9-4.3,4.8-5.7c1.9-1.5,4.3-2.2,6.9-2.2c2.2,0,4.1,0.6,5.7,2c1.5,1.4,2.7,3.1,3.5,5.1
						c0.8,2.2,1.2,4.6,1.2,7.1c0,2.1-0.4,4.3-0.9,6.3c-0.6,2-1.7,3.7-3.2,5s-3.2,2-5.4,2c-1.4,0-2.5-0.2-3.3-0.6s-1.4-0.9-1.8-1.4
						c-0.4-0.5-0.6-0.9-0.7-1.3c0.2,4.4,1.3,7,3.3,8.2c0.6,0.3,1.1,0.5,1.8,0.5c1.6,0,3.2-0.9,5.2-2.9c0.7-0.7,1.4-1,1.9-1
						c0.2,0,0.5,0.1,0.9,0.2c0.5,0.1,0.8,0.6,1.2,1.4c0.2,0.5,0.3,0.8,0.3,1.3c0,1.4-0.7,2.9-2.3,4.4
						C382.2,184.7,379.2,186,375.7,186z M375.1,165.5c1.3,0,2.4-1,3.3-3.2c0.9-2,1.4-4.4,1.4-6.7c0-0.8-0.1-1.7-0.3-2.6
						c-0.2-0.9-0.7-1.4-1.6-1.4c-0.8,0-1.6,0.5-2.2,1.5c-0.6,1-1.2,2.2-1.7,3.6c-0.5,1.4-0.8,2.9-1,4.3c-0.2,1.3-0.4,2.3-0.4,3.2
						v0.2C373.5,165.1,374.3,165.5,375.1,165.5z"/>
					<path class="st0" d="M452.1,185.7c-2.6,0-4.1-1.1-4.4-3.5c0-0.7,0-2.3,0-4.4c0-14.4,0.2-23.2,0.6-26.6
						c-0.6,1.3-1.7,4.4-3.4,9.4c-2.3,6.8-3.8,10.8-4.5,12.3c-0.8,1.6-2.4,2.4-4.4,2.4c-2.2,0-3.6-0.9-4.3-2.8l-2-6.4
						c-2.2-7.3-3.8-12.4-4.5-15.1c0,1,0,2.3,0,3.8c0,2,0,4.4,0.1,7.2c0.1,4.2,0.1,8.2,0.1,12c0,3.9-0.2,6.7-0.5,8.4
						c-0.4,1.5-1.2,2.4-2.2,2.7c-1.1,0.4-1.9,0.5-2.7,0.5c-0.8,0-1.6-0.1-2.4-0.5c-1.5-0.6-2.4-1.7-2.7-3.2
						c-0.6-4.3-0.8-8.4-0.8-12.6s0-6.6,0-7.4c0-6.5,0.1-12.5,0.3-18.3c0.2-6.4,0.5-10.3,0.7-11.7c0.7-2.2,2.5-3.3,5.5-3.3
						c2.4,0,4.4,0.8,5.7,2.4c1.9,2.7,4.4,8.4,7.5,17.2c1.2,3.6,2.1,6.6,2.7,9c0.9-2.4,2.1-5.5,3.6-9.1c1.5-3.6,3-7,4.4-10.3
						c1.5-3.2,2.6-5.5,3.3-6.7c1-1.4,2.1-2.1,3.2-2.3c1.1-0.2,1.9-0.2,2.4-0.2c1.3,0,2.4,0.3,3.5,0.8c1.5,0.7,2.2,1.9,2.4,3.3
						c0,3.2-0.2,11.6-0.5,25c-0.4,14.5-0.7,22.7-1,24.5c-0.4,1.3-1.1,2.1-2.3,2.6C454.1,185.5,453.1,185.7,452.1,185.7z"/>
					<path class="st0" d="M475.5,186c-2.8,0-5-0.7-6.9-2.2c-1.9-1.5-3.3-3.3-4.4-5.7c-1.4-3.1-2-6.7-2-10.7c0-1.9,0.2-4.1,0.6-6.4
						c0.5-2.3,1.3-4.7,2.5-7.1c1.2-2.4,2.9-4.3,4.8-5.7c1.9-1.5,4.3-2.2,6.9-2.2c2.2,0,4.2,0.6,5.7,2c1.5,1.4,2.7,3.1,3.5,5.1
						c0.8,2.2,1.2,4.6,1.2,7.1c0,2.1-0.4,4.3-0.9,6.3c-0.6,2-1.7,3.7-3.1,5c-1.4,1.4-3.2,2-5.4,2c-1.4,0-2.5-0.2-3.2-0.6
						c-0.7-0.5-1.4-0.9-1.8-1.4s-0.6-0.9-0.7-1.3c0.2,4.4,1.3,7,3.2,8.2c0.6,0.3,1.1,0.5,1.8,0.5c1.6,0,3.2-0.9,5.1-2.9
						c0.7-0.7,1.4-1,1.9-1c0.2,0,0.5,0.1,0.9,0.2c0.5,0.1,0.9,0.6,1.2,1.4c0.2,0.5,0.3,0.8,0.3,1.3c0,1.4-0.7,2.9-2.3,4.4
						C482,184.7,479,186,475.5,186z M474.7,165.5c1.3,0,2.4-1,3.3-3.2c0.9-2,1.4-4.4,1.4-6.7c0-0.8-0.1-1.7-0.3-2.6
						c-0.2-0.9-0.7-1.4-1.6-1.4s-1.6,0.5-2.2,1.5c-0.6,1-1.2,2.2-1.7,3.6c-0.5,1.4-0.8,2.9-1,4.3c-0.2,1.3-0.4,2.3-0.4,3.2v0.2
						C473.3,165.1,474.1,165.5,474.7,165.5z"/>
					<path class="st0" d="M517,187c-1.8,0-3.2-0.6-4.4-2c-0.6-0.9-0.9-2.4-1-4.6c-0.5,1-0.9,1.7-1.1,2c-1.6,2.3-4.1,3.5-7.5,3.5
						h-0.2c-3.1-0.2-5.6-1.3-7.5-3.2c-1.9-1.9-3.2-4.4-4.1-7c-0.8-2.7-1.1-5.5-1.1-8.2c0-3.9,0.7-7.7,2.1-11.2
						c1.1-3,2.8-5.4,4.9-7.3c2.1-1.9,4.6-2.9,7.7-2.9c1.7,0,3,0.3,4.1,0.9c1.1,0.6,1.9,1.3,2.6,2.1c0.6,0.8,1,1.6,1.3,2.3
						c0-1,0.2-2,0.5-3.2c0.6-1.8,2.4-2.7,5.3-2.7c0.9,0,1.9,0.2,2.8,0.5c1.6,0.6,2.4,1.7,2.6,3.2c0,1.4,0,3,0,4.7
						c0,6.3-0.1,12.5-0.2,18.8c-0.1,4.2-0.2,7.3-0.4,9.4c-0.1,1.6-0.8,2.7-2,3.5C519.8,186.6,518.4,187,517,187z M504.9,181.1
						c1.3,0,2.4-0.7,3.4-2.1c1-1.4,1.9-3.2,2.7-5.5c0.7-2.2,1.2-4.3,1.5-6.2c0.3-1.9,0.4-3.5,0.4-4.8c0-3.7-0.6-6.6-1.9-8.6
						c-0.9-1.4-2.2-2.1-3.9-2.1c-1.7,0-3,1-4.1,3c-1.1,1.9-1.9,4.3-2.2,6.9c-0.4,2.7-0.6,5.1-0.6,7.3c0,3.7,0.5,6.8,1.4,9.2
						C502.3,180.1,503.5,181.1,504.9,181.1z"/>
					<path class="st0" d="M532.6,186.7c-3.2,0-4.9-1.7-5.1-5c0-1-0.1-3-0.2-5.8c-0.4-8.4-0.6-16.8-0.6-25c0-6.5,0.2-13.1,0.6-19.9
						c0.2-1.5,1.2-2.5,3.1-3.1c0.7-0.2,1.6-0.4,2.3-0.4c1,0,2.1,0.3,3.5,0.7c1.4,0.5,2,1.8,2.1,3.8c-0.7,21.2-1.1,37-1.1,47.2v3.2
						c-0.1,1.9-0.9,3.2-2.5,3.7C534,186.5,533.3,186.7,532.6,186.7z"/>
					<path class="st0" d="M556.5,186.1c-4.6,0-8.6-1.2-11.8-3.7c-2.4-1.9-3.6-3.6-3.7-5.1c0-1.3,0.5-2.2,1.4-2.9
						c0.3-0.2,0.6-0.4,0.9-0.4s0.7,0.1,1.1,0.4c2.5,1.9,4.9,3.1,7.3,3.6c0.7,0.2,1.3,0.2,1.9,0.2c1.3,0,2.1-0.5,2.6-1.4
						c0.1-0.4,0.2-0.6,0.2-0.9c0-0.6-0.5-1.3-1.2-1.9s-1.9-1.5-3.4-2.4c-2.1-1.1-4.3-2.7-6.3-4.5c-2-1.9-3.4-4.4-4.2-7.6
						c-0.1-0.7-0.2-1.6-0.2-2.5c0-1.5,0.3-3,0.9-4.6c0.6-1.7,1.8-3.1,3.5-4.4c1.8-1.4,3.9-1.9,6.5-1.9c4.2,0,7.6,1.6,10.5,4.6
						c2.2,2.4,3.3,4.6,3.4,6.6c0,0.9-0.3,1.9-0.8,3s-1.5,1.9-2.8,2.6c-0.6,0.3-1.1,0.4-1.5,0.4c-0.6,0-1.1-0.2-1.6-0.6
						c-2.8-3.4-5.2-5.1-7.1-5.1c-0.6,0-1,0.2-1.3,0.6c-0.3,0.4-0.4,0.7-0.4,1.1c0.1,1.2,1.9,3,5.5,5.1c1.9,1.1,3.8,2.4,5.6,3.9
						c3,2.4,4.4,5.4,4.4,8.9c0,0.8-0.2,1.9-0.6,3.2c-0.4,1.3-1.3,2.6-2.9,3.9C561,185.2,559,186.1,556.5,186.1z"/>
				</g>
			</g>
		</g>
		<g>
			<path d="M237.1,113.6c-1,0-2.2-0.2-3.9-0.6c-1.7-0.3-2.6-1.8-3-4.1c-0.3-4.2-0.6-14.9-0.6-31.9c0-15.5,0.2-27.3,0.4-35.6
				c0.4-3,3-4.6,8-4.6c1.5,0,3.3,0.3,5.3,1c2,0.7,3.1,2,3.3,4.1c-0.2,4.5-0.2,9.2-0.2,14.2l0.1,16.1c0.1,0.8,2,1.2,5.7,1.2
				c2,0,3.8-0.2,5.3-0.6c1.3-0.3,2-0.8,2.1-1.5c0.2-1.9,0.3-5.4,0.3-10.6c0.1-8.1,0.3-14,0.6-17.7c0.4-2.6,1.9-4.3,4.4-5
				c1.1-0.3,2.4-0.6,3.5-0.6c1.3,0,2.9,0.3,4.8,1c1.9,0.7,2.9,2.3,3.1,4.6c0,4.2-0.1,10.8-0.2,20.1c-0.1,9.2-0.2,18.3-0.4,27.1
				c-0.1,8.8-0.2,14.7-0.2,17.7c-0.2,2.3-1.3,3.7-3.5,4.6c-1.3,0.5-2.6,0.7-4,0.7c-0.9,0-2-0.1-3.6-0.5s-2.6-1.4-3-2.9
				c-0.6-3.6-0.9-8.2-0.9-14c-0.1-3.4-0.2-6.3-0.3-8.9c-0.2-2.6-0.4-4.1-1-4.5c-0.9-0.6-2.7-0.8-5.6-0.8c-4.7,0-7.2,0.6-7.6,1.7
				c-0.4,2.3-0.6,5.8-0.6,10.4v1.2c0,5.2-0.2,9.9-0.6,14.3c-0.3,1.7-1.7,3-3.9,3.8C239.6,113.4,238.4,113.6,237.1,113.6z"/>
			<path d="M299.7,113.4c-3.8,0-7.1-1-9.8-2.9s-4.7-4.5-6.2-7.7c-1.9-4.1-2.9-8.8-2.9-14.2c0-2.5,0.3-5.4,0.9-8.6
				c0.6-3.2,1.8-6.3,3.6-9.5s4-5.8,6.7-7.7c2.7-1.9,6-2.9,9.7-2.9c3.1,0,5.8,0.9,8,2.7c2.1,1.8,3.8,4.1,4.9,6.9
				c1.1,2.9,1.8,6.2,1.8,9.5c0,2.8-0.4,5.6-1.3,8.3c-0.9,2.7-2.4,4.8-4.4,6.7c-2,1.8-4.6,2.7-7.6,2.7c-2,0-3.5-0.2-4.6-0.9
				c-1.1-0.7-1.9-1.1-2.5-1.8s-0.9-1.2-1-1.7c0.3,5.8,1.8,9.4,4.6,10.8c0.8,0.5,1.7,0.6,2.5,0.6c2.1,0,4.6-1.2,7.3-3.8
				c1-0.9,1.9-1.4,2.8-1.4c0.2,0,0.7,0.1,1.3,0.2c0.7,0.1,1.2,0.8,1.8,1.9c0.2,0.6,0.3,1.1,0.3,1.7c0,1.8-1.1,3.8-3.3,6
				C308.8,111.7,304.6,113.4,299.7,113.4z M298.5,86.2c1.9,0,3.5-1.4,4.8-4.2c1.3-2.8,2-5.8,2-8.9c0-1-0.1-2.3-0.4-3.5
				s-1-1.9-2.1-1.9s-2.2,0.7-3.1,2s-1.7,2.9-2.4,4.8c-0.7,1.9-1.2,3.8-1.5,5.6c-0.3,1.7-0.4,3-0.4,4.2v0.3
				C296.4,85.8,297.5,86.2,298.5,86.2z"/>
			<path d="M358.2,114.8c-2.5,0-4.6-0.9-6.3-2.7c-0.9-1.1-1.3-3.3-1.5-6.2c-0.7,1.4-1.2,2.3-1.7,2.8c-2.1,3.2-5.7,4.6-10.6,4.6h-0.3
				c-4.4-0.2-7.9-1.7-10.6-4.3s-4.6-5.8-5.7-9.4s-1.7-7.3-1.7-10.8c0-5.2,1-10.1,3-14.9c1.7-3.9,3.9-7.2,7-9.7
				c3-2.5,6.6-3.8,10.8-3.8c2.2,0,4.3,0.5,5.7,1.2c1.5,0.8,2.7,1.7,3.6,2.8c0.9,1.1,1.5,2.1,1.8,3.2c0-1.2,0.2-2.7,0.6-4.2
				c0.9-2.4,3.4-3.5,7.4-3.5c1.3,0,2.6,0.2,3.9,0.7c2.2,0.8,3.5,2.1,3.7,4.3c0,1.8,0.1,3.9,0.1,6.3c0,8.3-0.1,16.7-0.3,24.9
				c-0.1,5.5-0.3,9.7-0.4,12.5c-0.2,2-1.1,3.6-2.9,4.6C362.2,114.2,360.4,114.8,358.2,114.8z M341.3,106.9c1.8,0,3.4-0.9,4.9-2.8
				c1.5-1.9,2.7-4.3,3.8-7.3c1-2.9,1.7-5.8,2.1-8.2c0.3-2.6,0.6-4.6,0.6-6.4c0-5-0.9-8.8-2.6-11.5c-1.2-1.9-3.1-2.8-5.5-2.8
				c-2.4,0-4.3,1.4-5.7,3.9c-1.5,2.6-2.6,5.8-3.1,9.1s-0.9,6.8-0.9,9.8c0,5,0.7,9,2,12.2C337.6,105.6,339.1,106.9,341.3,106.9z"/>
			<path d="M380.4,114.4c-4.6,0-7-2.3-7.2-6.7c0-1.4-0.1-3.9-0.2-7.8c-0.6-11.2-0.8-22.3-0.8-33.3c0-8.6,0.3-17.4,0.9-26.5
				c0.3-2,1.8-3.3,4.3-4.1c1.1-0.3,2.1-0.5,3.3-0.5c1.3,0,3,0.3,4.9,1c1.9,0.7,2.9,2.4,3,5.1c-1,28.2-1.6,49.1-1.6,62.7v4.3
				c-0.1,2.5-1.2,4.2-3.5,5C382.4,114.2,381.4,114.4,380.4,114.4z"/>
			<path d="M407.1,113.9c-1.7,0-3.6-0.6-5.7-1.7c-2.1-1.1-3.5-2.8-4.3-5.2c-0.3-1.7-0.7-5.2-0.9-10.7c-0.3-7.6-0.4-16-0.4-25.3
				c0-4.4,0-8.6,0.1-12.6h-1.1c-1,0-1.9,0-2.7-0.1c-1.7-0.3-2.5-1.6-2.5-3.7c0-0.5,0.1-1.1,0.3-1.9c0.2-0.8,0.9-1.4,1.9-1.7
				c1.6-0.5,2.9-0.8,4.3-0.9c0.1-2.1,0.2-3.8,0.3-5.1c0.2-1.5,1-2.6,2.6-3.4s3.1-1.1,5.1-1.1s3.5,0.5,4.9,1.4
				c1.5,0.9,2.1,2.3,2.1,4.1v2.8c1.9-0.1,3.1-0.1,3.5-0.1c2.1,0.1,3.3,1.5,3.6,4.1l0.1,0.8c0,2.1-1,3.4-2.9,3.5
				c-0.7,0.1-2,0.2-4.2,0.3l0.6,52.1C411.6,112.4,410.1,113.9,407.1,113.9z"/>
			<path d="M429.1,113.9c-1.2,0-2.8-0.3-4.6-1s-2.9-2.5-3.1-5.4c-0.2-5.2-0.4-12.5-0.6-21.7c-0.2-13.6-0.3-23.8-0.3-30.7
				c0-6.3,0.1-10.9,0.2-13.8c0.4-2.9,2.7-4.5,7-4.5c1.5,0,3.3,0.3,5.2,1.1c1.9,0.8,2.9,2.1,3.1,4.3v22.1c0.3-0.6,1.1-1.2,2.4-2.3
				s2.7-1.9,4.6-2.7s4.2-1.2,6.6-1.2c4.9,0,8.7,1.4,11.2,3.9c2.6,2.6,4.4,6.2,5.3,10.8c0.9,4.3,1.3,9.1,1.3,14.7
				c0,6.3-0.2,13.3-0.8,20.9c-0.3,2.5-1.7,4.1-4.3,4.8c-1.1,0.3-2.4,0.6-3.5,0.6c-4.9,0-7.6-2-8.1-6.1c-0.1-3.7-0.2-7.6-0.2-11.3
				l0.1-5.5l0.1-6.8c0-2.1-0.1-4.6-0.1-7.6c-0.1-2.9-0.6-5.5-1.3-7.9c-0.8-2.4-2.2-3.5-4.3-3.5c-3.8,0-6.3,3.4-7.3,10
				c-0.7,4.3-1,10.8-1,19.6v3.2c0,3.6,0,7.1-0.1,10.6c-0.2,2.4-1.6,3.9-3.9,4.6C431.3,113.6,430.2,113.9,429.1,113.9z"/>
			<path d="M491.8,136.4c-2.7,0-5.3-0.6-7.9-1.7c-2.6-1.1-4.6-2.7-6.3-4.6c-0.8-1-1.1-1.8-1.1-2.6c0-0.1,0-0.6,0.1-1.1
				c0.1-0.6,0.6-1,1.3-1.2c0.2-0.1,0.6-0.1,0.8-0.1c0.6,0,1.2,0.2,2,0.8c1.9,1.4,3.8,2,5.6,2c1,0,2.5-0.3,4.4-1.1
				c1.9-0.8,3.7-3,5.5-6.9c1.8-3.8,2.7-8.6,2.7-14.4c-1.1,2.4-2.7,4.3-4.8,5.9c-2,1.6-4.5,2.4-7.4,2.4c-4.6,0-8.2-2-10.6-6.1
				c-3-5-4.6-12.6-4.6-22.9c0-6,0.6-12.7,1.6-20.3c0.6-2.8,2.6-4.2,6.1-4.2c1.5,0,2.8,0.3,4.3,1c2,1,2.9,2.5,2.9,4.5v0.1
				c-0.1,0.9-0.2,2.7-0.4,5.4c-0.2,3.6-0.3,7.6-0.3,12.1c0,13.6,1.7,20.5,4.9,20.5c1.9,0,3.5-1.7,4.7-5.2c2.5-6.7,3.7-16.9,3.7-30.9
				v-2.3c0.1-2.4,1.3-3.9,3.6-4.7c1.1-0.5,2.2-0.7,3.5-0.7c1.1,0,2.5,0.2,4.2,0.8c1.7,0.6,2.7,2,3.1,4.3c0.8,6.2,1.1,13.3,1.1,21.4
				c0,6.3-0.4,13.1-1.3,20.3c-0.9,7.2-2.8,13.6-5.7,19.4c-2.9,5.8-7.2,9-12.9,10C493.6,136.3,492.7,136.4,491.8,136.4z"/>
		</g>
	</g>
</g>
<g id="Layer_3_1_">
</g>
<g id="Layer_2_1_">
	<g>
		<g>
			<path class="st0" d="M152.4,133.2L113,110.5c-2.6-1.5-5.9-1.5-8.4,0l-41.8,23.9c-2.6,1.5-4.2,4.3-4.2,7.4v34.8
				c0,5.8,4.7,10.5,10.5,10.5H102v-16h12.6v16h31.7c5.8,0,10.5-4.7,10.5-10.5v-35.9C156.7,137.6,155.1,134.8,152.4,133.2z"/>
		</g>
		<path d="M208.8,56.1c-10-20.4-31.9-33.7-56-34.1c-6.7-7-22.5-20.4-45.7-20.4c-0.3,0-0.6,0-0.9,0C84,2,69.1,13.8,61.5,21.9
			c-0.1,0-0.3,0-0.3,0c-13,0-25.4,4.1-36,11.7C14.5,41.3,6.8,52,2.8,64.5C-1.5,78.1-0.8,93,4.7,106.3c4.7,11.1,12.3,20.5,22.1,27.2
			v34.6c0,10.3,8.5,18.8,18.8,18.8h4.1V120l-6.2-3.2c-16.6-8.7-24.6-27.7-19-45.5c4.9-15.7,20-26.5,36.6-26.5c1.4,0,2.7,0.1,4.2,0.3
			l6.5,0.7l3.9-5.3c1.2-1.6,12-15.6,30.8-15.9h0.5c19.1,0,30.2,14.2,31.4,15.9l3.7,5.1l6.3-0.4c1-0.1,2.1-0.1,3.1-0.1
			c15.9,0,30.3,8.3,36.6,21.3c8.7,17.8,1.2,40.8-17.3,52.3l-5.3,3.4v65.1h4.1c10.3,0,18.8-8.5,18.8-18.8v-33.8
			C212.9,115.5,221.6,82.3,208.8,56.1z"/>
	</g>
</g>
</svg>
